<svg width="96" height="96" xmlns="http://www.w3.org/2000/svg" xmlns:xlink="http://www.w3.org/1999/xlink" xml:space="preserve" overflow="hidden"><g transform="translate(-225 -150)"><path d="M301.626 181.573C301.351 181.094 300.74 180.929 300.261 181.204L293.681 184.98 295.268 179.12C295.412 178.587 295.097 178.037 294.564 177.893 294.031 177.749 293.481 178.064 293.337 178.597L291.228 186.388 285.876 189.46 288.94 178.14C289.079 177.605 288.758 177.06 288.223 176.921 287.697 176.785 287.158 177.093 287.01 177.616L283.423 190.868 278.508 193.688C277.399 192.272 275.788 191.338 274.008 191.08L274.008 185.414 283.715 175.707C284.105 175.316 284.105 174.683 283.715 174.292 283.324 173.902 282.69 173.902 282.3 174.293L274.007 182.586 274.007 176.414 279.714 170.707C280.098 170.31 280.087 169.677 279.689 169.293 279.302 168.919 278.688 168.919 278.3 169.293L274.007 173.586 274.007 166C274.007 165.448 273.559 165 273.007 165 272.455 165 272.007 165.448 272.007 166L272.007 173.586 267.714 169.293C267.317 168.909 266.684 168.92 266.3 169.318 265.926 169.705 265.926 170.32 266.3 170.707L272.007 176.414 272.007 182.586 263.714 174.293C263.317 173.909 262.684 173.92 262.3 174.318 261.926 174.705 261.926 175.32 262.3 175.707L272.007 185.414 272.007 191.08C270.255 191.333 268.664 192.24 267.555 193.62L262.677 190.741 259.25 177.447C259.112 176.912 258.566 176.59 258.031 176.729 257.497 176.867 257.175 177.412 257.313 177.947L260.239 189.3 254.924 186.163 252.911 178.35C252.773 177.815 252.227 177.493 251.693 177.632 251.158 177.77 250.836 178.315 250.974 178.85L252.489 184.728 245.956 180.872C245.479 180.591 244.864 180.75 244.583 181.228 244.303 181.705 244.462 182.319 244.939 182.6L251.472 186.456 245.593 187.97C245.058 188.106 244.735 188.651 244.871 189.186 244.984 189.63 245.384 189.94 245.842 189.939 245.926 189.939 246.01 189.928 246.092 189.907L253.907 187.893 259.223 191.03 247.865 193.951C247.33 194.087 247.007 194.632 247.143 195.167 247.256 195.611 247.656 195.921 248.114 195.92 248.198 195.92 248.282 195.91 248.364 195.889L261.658 192.463 266.533 195.341C265.84 197.016 265.829 198.896 266.503 200.579L261.592 203.4 248.34 199.811C247.813 199.645 247.252 199.938 247.086 200.465 246.921 200.992 247.214 201.553 247.74 201.719 247.766 201.727 247.792 201.734 247.818 201.74L259.139 204.805 253.786 207.878 246 205.77C245.473 205.604 244.912 205.897 244.746 206.424 244.581 206.951 244.874 207.512 245.4 207.678 245.426 207.686 245.452 207.693 245.478 207.699L251.337 209.286 244.758 213.062C244.279 213.338 244.115 213.95 244.391 214.429 244.667 214.908 245.279 215.072 245.758 214.796L252.338 211.02 250.752 216.88C250.608 217.412 250.921 217.96 251.452 218.106 251.537 218.13 251.625 218.142 251.713 218.142 252.165 218.142 252.56 217.839 252.678 217.403L254.787 209.612 260.14 206.54 257.069 217.86C256.924 218.393 257.239 218.943 257.772 219.087 258.306 219.232 258.855 218.917 259 218.384L262.587 205.132 267.502 202.312C268.611 203.728 270.222 204.662 272.002 204.92L272.002 210.586 262.3 220.293C261.916 220.69 261.927 221.323 262.325 221.707 262.712 222.081 263.327 222.081 263.714 221.707L272.007 213.414 272.007 219.586 266.3 225.293C265.916 225.69 265.927 226.323 266.325 226.707 266.712 227.081 267.327 227.081 267.714 226.707L272.007 222.414 272.007 230C272.007 230.552 272.455 231 273.007 231 273.559 231 274.007 230.552 274.007 230L274.007 222.414 278.3 226.707C278.684 227.104 279.317 227.115 279.714 226.732 280.111 226.348 280.122 225.715 279.739 225.318 279.73 225.309 279.722 225.301 279.714 225.293L274.007 219.586 274.007 213.414 282.3 221.707C282.684 222.104 283.317 222.115 283.714 221.732 284.111 221.348 284.122 220.715 283.739 220.318 283.73 220.309 283.722 220.301 283.714 220.293L274.007 210.586 274.007 204.92C275.759 204.667 277.35 203.76 278.459 202.38L283.337 205.259 286.76 218.553C286.874 218.995 287.271 219.303 287.727 219.304 287.811 219.304 287.895 219.293 287.977 219.272 288.511 219.134 288.833 218.59 288.696 218.055L285.77 206.7 291.085 209.837 293.1 217.65C293.214 218.091 293.612 218.4 294.068 218.4 294.152 218.4 294.236 218.39 294.318 218.369 294.853 218.231 295.175 217.686 295.037 217.151 295.037 217.151 295.037 217.15 295.037 217.15L293.522 211.272 300.055 215.128C300.531 215.409 301.144 215.25 301.424 214.775 301.705 214.299 301.547 213.686 301.071 213.405L294.539 209.549 300.418 208.035C300.953 207.897 301.275 207.351 301.137 206.816 300.998 206.282 300.453 205.96 299.918 206.098L292.1 208.112 286.785 204.975 298.142 202.049C298.677 201.911 298.999 201.365 298.861 200.83 298.723 200.295 298.177 199.973 297.642 200.111L284.351 203.537 279.477 200.659C280.171 198.984 280.181 197.104 279.506 195.421L284.417 192.6 297.669 196.186C297.754 196.21 297.842 196.222 297.931 196.222 298.483 196.221 298.93 195.773 298.93 195.221 298.929 194.77 298.627 194.375 298.192 194.257L286.87 191.194 292.224 188.122 300.015 190.23C300.1 190.254 300.188 190.266 300.276 190.266 300.828 190.265 301.275 189.817 301.275 189.265 301.274 188.814 300.972 188.419 300.537 188.301L294.677 186.714 301.256 182.938C301.735 182.663 301.901 182.052 301.626 181.573 301.626 181.573 301.626 181.573 301.626 181.573ZM273.005 203C270.244 203 268.005 200.761 268.005 198 268.005 195.239 270.244 193 273.005 193 275.766 193 278.005 195.239 278.005 198 278.002 200.76 275.765 202.997 273.005 203Z"/></g></svg>