<svg width="96" height="96" xmlns="http://www.w3.org/2000/svg" xmlns:xlink="http://www.w3.org/1999/xlink" xml:space="preserve" overflow="hidden"><g transform="translate(-610 -165)"><path d="M663 192.7C656.2 194.7 651.6 201 651.6 208L683.6 208C683.6 200.5 678.4 194.1 671.2 192.4 668.8 180.3 657.6 172 645.3 173.1 633 174.3 623.6 184.7 623.6 197L623.6 253 631.6 253 631.6 197C631.7 189.1 637.5 182.4 645.4 181.3 653.3 180.2 660.8 185 663 192.7Z"/><path d="M684.6 212 650.6 212C648.9 212 647.6 213.3 647.6 215 647.6 216.7 648.9 218 650.6 218L684.6 218C686.3 218 687.6 216.7 687.6 215 687.6 213.3 686.3 212 684.6 212Z"/><path d="M668.5 253.2C667.4 253.2 666.5 252.3 666.5 251.2L666.5 224.2C666.5 223.1 667.4 222.2 668.5 222.2 669.6 222.2 670.5 223.1 670.5 224.2L670.5 251.2C670.5 252.3 669.6 253.2 668.5 253.2Z"/><path d="M680.5 253C679.5 253 678.6 252.3 678.5 251.3L674.5 224.6C674.3 223.5 675.1 222.5 676.2 222.3 677.3 222.1 678.3 222.9 678.5 224L682.5 250.7C682.6 251.2 682.4 251.8 682.1 252.2 681.8 252.6 681.3 252.9 680.8 253L680.5 253Z"/><path d="M692.4 252C691.5 252 690.7 251.4 690.5 250.6L682.6 224.8C682.3 223.8 682.9 222.7 684 222.4 685 222.1 686.1 222.6 686.5 223.6L694.4 249.4C694.6 250 694.5 250.7 694.1 251.2 693.6 251.7 693 252 692.4 252Z"/><path d="M656.4 253 656.1 253C655 252.8 654.3 251.8 654.4 250.7L658.4 224C658.6 222.9 659.6 222.1 660.7 222.3 661.8 222.5 662.6 223.5 662.4 224.6L658.4 251.3C658.3 252.3 657.4 253 656.4 253Z"/><path d="M644.5 252C643.9 252 643.3 251.7 642.9 251.2 642.5 250.7 642.4 250 642.6 249.4L650.5 223.6C650.9 222.6 651.9 222.1 653 222.4 654 222.7 654.6 223.8 654.4 224.8L646.5 250.6C646.2 251.4 645.4 252 644.5 252Z"/></g></svg>