<svg width="96" height="96" xmlns="http://www.w3.org/2000/svg" xmlns:xlink="http://www.w3.org/1999/xlink" xml:space="preserve" overflow="hidden"><g transform="translate(-91 -578)"><path d="M129 642 149 642C150.7 642 152 643.3 152 645 152 646.7 150.7 648 149 648L129 648C127.3 648 126 646.7 126 645 126 643.3 127.3 642 129 642Z"/><path d="M129 652 149 652C150.7 652 152 653.3 152 655 152 656.7 150.7 658 149 658L129 658C127.3 658 126 656.7 126 655 126 653.3 127.3 652 129 652Z"/><path d="M132.5 662C132.8 665.4 135.6 668 139 668 142.4 668 145.2 665.4 145.5 662L132.5 662Z"/><path d="M139 584C139 584 139 584 139 584 139 584 139 584 139 584 124.8 584.1 113.3 595.5 113 609.7L113 610.6C113.1 613.7 113.7 616.7 114.8 619.6 115.9 622.3 117.4 624.8 119.3 627 121.7 629.6 124.3 634.7 125.4 636.9 125.7 637.6 126.4 638 127.2 638L150.8 638C151.6 638 152.3 637.6 152.6 636.9 153.7 634.7 156.3 629.6 158.7 627 160.6 624.8 162.2 622.3 163.2 619.6 164.3 616.7 164.9 613.7 165 610.6L165 609.7C164.7 595.5 153.2 584.1 139 584ZM159 610.5C158.9 612.9 158.4 615.3 157.6 617.5 156.8 619.5 155.7 621.4 154.2 623 151.9 625.8 149.9 628.8 148.4 632L139 632 129.7 632C128.1 628.8 126.1 625.8 123.9 623 122.5 621.4 121.3 619.5 120.5 617.5 119.6 615.3 119.2 612.9 119.1 610.5L119.1 609.7C119.3 598.8 128.2 590 139.1 589.9L139.1 589.9 139.1 589.9C139.1 589.9 139.1 589.9 139.1 589.9 139.1 589.9 139.1 589.9 139.1 589.9L139.1 589.9 139.1 589.9C150 590 158.9 598.7 159.1 609.7L159.1 610.5Z"/></g></svg>