<svg width="96" height="96" xmlns="http://www.w3.org/2000/svg" xmlns:xlink="http://www.w3.org/1999/xlink" xml:space="preserve" overflow="hidden"><g transform="translate(-91 -472)"><path d="M165 491 153 491 153 503 157 503 157 510.17 141 526.17 141 483.83 144.59 487.41C145.429 488.129 146.691 488.031 147.41 487.192 148.051 486.443 148.051 485.339 147.41 484.59L139 476.17 130.59 484.59C129.871 485.429 129.969 486.691 130.808 487.41 131.557 488.051 132.661 488.051 133.41 487.41L137 483.83 137 534.17 121 518.17 121 509.65C124.124 508.545 125.761 505.117 124.657 501.993 123.552 498.869 120.124 497.232 117 498.336 113.876 499.441 112.239 502.869 113.343 505.993 113.947 507.702 115.291 509.046 117 509.65L117 519.83 137 539.83 137 545.26C132.722 546.365 130.15 550.728 131.254 555.006 132.359 559.284 136.722 561.857 141 560.752 145.278 559.647 147.85 555.284 146.746 551.006 146.018 548.188 143.818 545.988 141 545.26L141 531.83 161 511.83 161 503 165 503Z"/></g></svg>