<svg width="96" height="96" xmlns="http://www.w3.org/2000/svg" xmlns:xlink="http://www.w3.org/1999/xlink" xml:space="preserve" overflow="hidden"><g transform="translate(-220 -474)"><path d="M294 493 282 493 282 505 287 505 287 512.586 269 530.586 269 483.438C269 483.425 269.008 483.422 269.017 483.431L275.293 489.707C275.69 490.091 276.323 490.08 276.707 489.682 277.081 489.295 277.081 488.681 276.707 488.293L268 479.586 259.293 488.293C258.909 488.69 258.92 489.323 259.318 489.707 259.705 490.081 260.319 490.081 260.707 489.707L266.983 483.431C266.992 483.422 267 483.425 267 483.438L267 538.586 249 520.586 249 511.91C252.267 511.358 254.468 508.261 253.916 504.994 253.364 501.727 250.267 499.526 247 500.078 243.733 500.63 241.532 503.727 242.084 506.994 242.51 509.512 244.482 511.484 247 511.91L247 521.41 267 541.41 267 547.065C262.837 547.59 259.787 551.242 260.012 555.432 260.274 559.571 263.625 562.841 267.769 563 272.186 563.112 275.857 559.622 275.969 555.205 276.072 551.108 273.064 547.596 269 547.069L269 533.414 289 513.414 289 505 294 505ZM244.144 507.087C243.55 504.951 244.799 502.738 246.935 502.144 247.639 501.948 248.383 501.948 249.087 502.144 250.435 502.511 251.489 503.565 251.856 504.913 252.45 507.049 251.201 509.262 249.065 509.856 248.361 510.052 247.617 510.052 246.913 509.856 245.565 509.489 244.511 508.435 244.144 507.087ZM273.844 553.626C274.603 556.854 272.6 560.087 269.372 560.846 266.143 561.604 262.911 559.602 262.152 556.373 261.394 553.145 263.396 549.913 266.625 549.154 267.528 548.942 268.469 548.942 269.372 549.154 271.59 549.677 273.322 551.408 273.846 553.626ZM292 503 284 503 284 495 292 495Z"/></g></svg>