<svg width="96" height="96" xmlns="http://www.w3.org/2000/svg" xmlns:xlink="http://www.w3.org/1999/xlink" xml:space="preserve" overflow="hidden"><g transform="translate(-91 -150)"><path d="M167.7 212.3 163.2 209.7 166.7 208.8C167.8 208.5 168.4 207.4 168.1 206.4 167.8 205.4 166.7 204.7 165.7 205L158.3 207 155.4 205.3 164.4 202.9C165.5 202.6 166.1 201.5 165.8 200.5 165.5 199.5 164.4 198.8 163.4 199.1L150.5 202.5 146.7 200.3C146.9 199.6 147 198.9 147 198.2 147 197.5 146.9 196.7 146.7 196.1L150.5 193.9 163.4 197.3C163.6 197.3 163.7 197.4 163.9 197.4 164.8 197.4 165.6 196.8 165.8 195.9 166.1 194.8 165.5 193.7 164.4 193.5L155.4 191.1 158.3 189.4 165.7 191.4C165.9 191.4 166 191.5 166.2 191.5 167.1 191.5 167.9 190.9 168.1 190 168.4 188.9 167.8 187.8 166.7 187.6L163.2 186.7 167.7 184.1C168.7 183.5 169 182.3 168.4 181.4 167.8 180.4 166.6 180.1 165.7 180.7L161.2 183.3 162.1 179.8C162.4 178.7 161.8 177.6 160.7 177.4 159.6 177.1 158.5 177.7 158.3 178.8L156.3 186.2 153.4 187.9 155.8 178.9C156.1 177.8 155.5 176.7 154.4 176.5 153.3 176.2 152.2 176.8 152 177.9L148.6 190.8 144.8 193C143.8 192 142.5 191.2 141.1 190.9L141.1 186.5 150.5 177.1C151.3 176.3 151.3 175.1 150.5 174.3 149.7 173.5 148.5 173.5 147.7 174.3L141 180.2 141 176.9 146.4 171.5C147.2 170.7 147.2 169.5 146.4 168.7 145.6 167.9 144.4 167.9 143.6 168.7L141 171.2 141 166C141 164.9 140.1 164 139 164 137.9 164 137 164.9 137 166L137 171.2 134.4 168.6C133.6 167.8 132.4 167.8 131.6 168.6 130.8 169.4 130.8 170.6 131.6 171.4L137 176.8 137 180.1 130.4 173.5C129.6 172.7 128.4 172.7 127.6 173.5 126.8 174.3 126.8 175.5 127.6 176.3L137 185.7 137 190.1C135.6 190.5 134.3 191.2 133.3 192.2L129.5 190 126 177.3C125.7 176.2 124.6 175.6 123.6 175.9 122.5 176.2 121.9 177.3 122.2 178.3L124.6 187.3 121.7 185.6 119.7 178.2C119.4 177.1 118.3 176.5 117.3 176.8 116.2 177.1 115.6 178.2 115.9 179.2L116.8 182.7 112.3 180.1C111.3 179.5 110.1 179.9 109.6 180.8 109 181.8 109.4 183 110.3 183.5L114.8 186.1 111.3 187C110.2 187.3 109.6 188.4 109.9 189.4 110.1 190.3 110.9 190.9 111.8 190.9 112 190.9 112.1 190.9 112.3 190.8L119.7 188.8 122.6 190.5 113.6 192.9C112.5 193.2 111.9 194.3 112.2 195.3 112.4 196.2 113.2 196.8 114.1 196.8 114.3 196.8 114.4 196.8 114.6 196.7L127.5 193.3 131.3 195.5C131.1 196.5 131 197.3 131 198 131 198.7 131.1 199.5 131.3 200.1L127.5 202.3 114.6 198.9C113.5 198.6 112.4 199.2 112.2 200.3 112 201.4 112.5 202.5 113.6 202.7L122.6 205.1 119.7 206.8 112.3 204.8C111.2 204.5 110.1 205.1 109.9 206.2 109.7 207.3 110.2 208.4 111.3 208.6L114.8 209.5 110.3 212.1C109.3 212.7 109 213.9 109.6 214.8 110 215.4 110.6 215.8 111.3 215.8 111.6 215.8 112 215.7 112.3 215.5L116.8 212.9 115.9 216.4C115.6 217.5 116.2 218.6 117.3 218.8 117.5 218.8 117.6 218.9 117.8 218.9 118.7 218.9 119.5 218.3 119.7 217.4L121.7 210 124.6 208.3 122.2 217.3C121.9 218.4 122.5 219.5 123.6 219.7 123.8 219.7 123.9 219.8 124.1 219.8 125 219.8 125.8 219.2 126 218.3L129.4 205.4 133.2 203.2C134.2 204.2 135.5 205 136.9 205.3L136.9 209.7 127.5 219.1C126.7 219.9 126.7 221.1 127.5 221.9 128.3 222.7 129.5 222.7 130.3 221.9L136.9 215.3 136.9 218.6 131.5 224C130.7 224.8 130.7 226 131.5 226.8 132.3 227.6 133.5 227.6 134.3 226.8L136.9 224.2 136.9 230C136.9 231.1 137.8 232 138.9 232 140 232 140.9 231.1 140.9 230L140.9 224.8 143.5 227.4C144 227.8 144.5 228 145 228 145.5 228 146 227.8 146.4 227.4 147.2 226.6 147.2 225.4 146.4 224.6L141 219.2 141 215.9 147.6 222.5C148 222.8 148.5 223 149 223 149.5 223 150 222.8 150.4 222.4 151.2 221.6 151.2 220.4 150.4 219.6L141 210.2 141 205.8C142.4 205.4 143.7 204.7 144.7 203.7L148.5 205.9 152 218.7C152.2 219.6 153 220.2 153.9 220.2 154.1 220.2 154.2 220.2 154.4 220.1 155.5 219.8 156.1 218.7 155.8 217.7L153.4 208.7 156.3 210.4 158.3 217.8C158.5 218.7 159.3 219.3 160.2 219.3 160.4 219.3 160.5 219.3 160.7 219.2 161.8 218.9 162.4 217.8 162.1 216.8L161.2 213.3 165.7 215.9C166 216.1 166.4 216.2 166.7 216.2 167.4 216.2 168.1 215.8 168.4 215.2 169 214 168.7 212.8 167.7 212.3Z"/></g></svg>