<svg width="96" height="96" xmlns="http://www.w3.org/2000/svg" xmlns:xlink="http://www.w3.org/1999/xlink" xml:space="preserve" overflow="hidden"><g transform="translate(-745 -167)"><path d="M783.069 179.805C791.518 179.769 798.84 185.648 800.63 193.905 792.525 194.805 786.39 201.65 786.379 209.805L786.379 214.805 784.069 214.805C783.517 214.805 783.069 215.253 783.069 215.805 783.069 216.357 783.517 216.805 784.069 216.805L821.069 216.805C821.621 216.805 822.069 216.357 822.069 215.805 822.069 215.253 821.621 214.805 821.069 214.805L818.759 214.805 818.759 209.805C818.75 200.972 811.592 193.814 802.759 193.805L802.648 193.805C800.792 184.473 792.583 177.765 783.069 177.805L782.069 177.805C771.029 177.818 762.082 186.765 762.069 197.805L762.069 254.805 764.069 254.805 764.069 197.805C764.08 187.868 772.132 179.816 782.069 179.805ZM816.759 209.805 816.759 214.805 788.379 214.805 788.379 209.805C788.387 202.076 794.65 195.813 802.379 195.805L802.759 195.805C810.488 195.813 816.751 202.076 816.759 209.805Z"/><path d="M803.569 222.805C803.017 222.805 802.569 223.253 802.569 223.805L802.569 253.805C802.569 254.357 803.017 254.805 803.569 254.805 804.121 254.805 804.569 254.357 804.569 253.805L804.569 223.805C804.569 223.253 804.121 222.805 803.569 222.805Z"/><path d="M796.233 222.818C795.688 222.728 795.174 223.096 795.083 223.64L790.083 253.64C789.992 254.185 790.36 254.7 790.905 254.791 790.905 254.791 790.905 254.791 790.905 254.791 790.959 254.8 791.015 254.805 791.07 254.805 791.558 254.804 791.975 254.451 792.055 253.969L797.055 223.969C797.146 223.424 796.778 222.909 796.233 222.818 796.233 222.818 796.233 222.818 796.233 222.818Z"/><path d="M788.366 222.85C787.839 222.686 787.278 222.98 787.114 223.508 787.114 223.508 787.114 223.508 787.114 223.508L778.114 252.508C777.95 253.035 778.244 253.596 778.772 253.76 778.772 253.76 778.772 253.76 778.772 253.76 778.869 253.79 778.97 253.805 779.072 253.805 779.509 253.805 779.896 253.522 780.027 253.105L789.027 224.105C789.192 223.578 788.899 223.017 788.372 222.852 788.37 222.851 788.368 222.851 788.366 222.85Z"/><path d="M810.905 222.818C810.36 222.909 809.992 223.424 810.083 223.969 810.083 223.969 810.083 223.969 810.083 223.969L815.083 253.969C815.163 254.451 815.58 254.804 816.068 254.805 816.123 254.805 816.178 254.8 816.233 254.791 816.778 254.7 817.146 254.185 817.055 253.64 817.055 253.64 817.055 253.64 817.055 253.64L812.055 223.64C811.964 223.096 811.45 222.728 810.905 222.818Z"/><path d="M829.024 252.508 820.024 223.508C819.856 222.982 819.293 222.691 818.767 222.859 818.247 223.025 817.956 223.578 818.114 224.101L827.114 253.101C827.245 253.518 827.632 253.801 828.069 253.801 828.171 253.801 828.272 253.786 828.369 253.756 828.893 253.591 829.186 253.033 829.024 252.508Z"/></g></svg>