<svg width="96" height="96" xmlns="http://www.w3.org/2000/svg" xmlns:xlink="http://www.w3.org/1999/xlink" xml:space="preserve" overflow="hidden"><g transform="translate(-623 -291)"><path d="M651 363 650.9 363C650.5 361.3 648.9 360 647 360L639 360C637.1 360 635.6 361.3 635.1 363L635 363C632.8 363 631 364.8 631 367L633 373 653 373 655 367C655 364.8 653.2 363 651 363Z"/><path d="M648 353C648 355.761 645.761 358 643 358 640.239 358 638 355.761 638 353 638 350.239 640.239 348 643 348 645.761 348 648 350.239 648 353Z"/><path d="M679 363 679 363C678.5 361.3 676.9 360 675 360L667 360C665.1 360 663.6 361.3 663.1 363L663 363C660.8 363 659 364.8 659 367L661 373 681 373 683 367C683 364.8 681.2 363 679 363Z"/><path d="M676 353C676 355.761 673.761 358 671 358 668.239 358 666 355.761 666 353 666 350.239 668.239 348 671 348 673.761 348 676 350.239 676 353Z"/><path d="M707 363 707 363C706.5 361.3 704.9 360 703 360L695 360C693.1 360 691.6 361.3 691.1 363L691 363C688.8 363 687 364.8 687 367L689 373 709 373 711 367C711 364.8 709.2 363 707 363Z"/><path d="M704 353C704 355.761 701.761 358 699 358 696.239 358 694 355.761 694 353 694 350.239 696.239 348 699 348 701.761 348 704 350.239 704 353Z"/><path d="M627 305 627 354 635.1 354C635.1 353.7 635 353.3 635 353 635 348.6 638.6 345 643 345 647.4 345 651 348.6 651 353 651 353.3 651 353.7 650.9 354L663 354C663 353.7 662.9 353.3 662.9 353 662.9 348.6 666.5 345 670.9 345 675.3 345 678.9 348.6 678.9 353 678.9 353.3 678.9 353.7 678.8 354L690.9 354C690.9 353.7 690.8 353.3 690.8 353 690.8 348.6 694.4 345 698.8 345 703.2 345 706.8 348.6 706.8 353 706.8 353.3 706.8 353.7 706.7 354L715 354 715 305 627 305Z"/></g></svg>