<svg width="96" height="96" xmlns="http://www.w3.org/2000/svg" xmlns:xlink="http://www.w3.org/1999/xlink" xml:space="preserve" overflow="hidden"><g transform="translate(-610 -40)"><path d="M636 83C636 86.3137 633.314 89 630 89 626.686 89 624 86.3137 624 83 624 79.6863 626.686 77 630 77 633.314 77 636 79.6863 636 83Z"/><path d="M637 89 649 89 649 79 647 79C641.5 79 637 83.5 637 89Z"/><path d="M698 79 652 79 652 103C652 105.2 653.8 107 656 107L696 107 696 112 702 112 702 83C702 80.8 700.2 79 698 79Z"/><path d="M620 67C620 65.3 618.7 64 617 64 615.3 64 614 65.3 614 67L614 112 620 112 620 102 649 102 649 92 620 92 620 67Z"/></g></svg>