<svg width="96" height="96" xmlns="http://www.w3.org/2000/svg" xmlns:xlink="http://www.w3.org/1999/xlink" xml:space="preserve" overflow="hidden"><g transform="translate(-743 -433)"><path d="M764 523C772.411 523 779 519.8 779 515.712L779 471.971 779 471.971C779 470.471 778 467.671 775.918 466.726 774.801 463.28 772.156 460.543 768.75 459.31 768.22 459.707 767.629 460.017 767 460.227L767 458.949C767.676 458.588 768.114 457.9 768.156 457.134L768.156 453.767 767.156 453.767C766.836 453.754 766.588 453.484 766.602 453.164 766.614 452.864 766.855 452.622 767.156 452.61L768.156 452.61 768.156 449.032 764 449.032C761.706 449.034 759.846 450.894 759.844 453.188L759.844 457.134C759.886 457.9 760.324 458.588 761 458.949L761 460.227C760.371 460.017 759.78 459.707 759.25 459.31 755.828 460.518 753.174 463.265 752.083 466.726 750.305 467.909 749.168 469.842 749 471.971L749 471.971 749 515.712C749 519.8 755.589 523 764 523ZM761.844 453.188C761.844 451.997 762.809 451.032 764 451.032L765.715 451.032C765.719 451.034 765.721 451.04 765.719 451.044 765.718 451.046 765.717 451.047 765.715 451.048 764.533 451.84 764.217 453.441 765.009 454.623 765.29 455.043 765.689 455.371 766.155 455.566L766.163 457.066C765.558 457.562 764.778 457.795 764 457.712 763.228 457.787 762.457 457.564 761.844 457.088ZM765 459.636 765 460.66C764.672 460.692 764.345 460.726 764 460.726 763.655 460.726 763.328 460.692 763 460.66L763 459.636C763.663 459.737 764.337 459.737 765 459.636ZM759.043 461.563C760.571 462.363 762.276 462.763 764 462.726 765.716 462.763 767.414 462.367 768.936 461.574 771.32 462.681 773.142 464.724 773.97 467.219 773.658 469.048 769.5 471 764 471 758.5 471 754.342 469.048 754.03 467.219 754.844 464.72 756.66 462.671 759.043 461.563ZM752.562 468.846C754.086 471.28 758.566 473 764 473 769.477 473 773.987 471.253 775.476 468.789 776.368 469.623 776.912 470.764 777 471.982 777 473.84 771.815 476.649 764 476.649 756.185 476.649 751 473.84 751 471.982 751.151 470.79 751.702 469.685 752.562 468.846ZM751 475.287C753.6 477.287 758.453 478.649 764 478.649 769.547 478.649 774.405 477.29 777 475.287L777 515.712C777 518.213 771.661 521 764 521 756.339 521 751 518.213 751 515.712Z"/><path d="M797 484.521 789 484.521 789 486.521 797 486.521 797 499.521 789 499.521 789 501.521 806 501.521 806 514.521 789 514.521 789 516.521 833 516.521 833 514.521 808 514.521 808 501.521 833 501.521 833 499.521 825 499.521 825 486.521 833 486.521 833 484.521 818 484.521 818 471.521 833 471.521 833 469.521 810 469.521 810 471.521 816 471.521 816 484.521 797 484.521ZM823 486.521 823 499.521 799 499.521 799 486.521Z"/><path d="M779.373 453.287C779.373 453.839 779.821 454.287 780.373 454.287L796.73 454.287C797.282 454.287 797.73 453.839 797.73 453.287 797.73 452.735 797.282 452.287 796.73 452.287L780.373 452.287C779.821 452.287 779.373 452.735 779.373 453.287Z"/><path d="M802.091 453.287C802.091 453.839 802.539 454.287 803.091 454.287L804 454.287C804.552 454.287 805 453.839 805 453.287 805 452.735 804.552 452.287 804 452.287L803.091 452.287C802.539 452.287 802.091 452.735 802.091 453.287Z"/><path d="M773.856 456.925 788.779 463.625C789.283 463.852 789.875 463.627 790.102 463.123 790.329 462.619 790.104 462.027 789.6 461.8L774.675 455.1C774.171 454.874 773.579 455.099 773.353 455.603 773.127 456.107 773.352 456.699 773.856 456.925Z"/><path d="M795.412 466.6C795.918 466.822 796.508 466.592 796.729 466.086 796.949 465.586 796.727 465.002 796.23 464.775L795.4 464.4C794.894 464.178 794.304 464.408 794.083 464.914 793.863 465.414 794.085 465.998 794.582 466.225Z"/><path d="M782.95 445.745 773.744 449.645C773.229 449.844 772.973 450.423 773.172 450.939 773.372 451.453 773.951 451.71 774.466 451.51 774.485 451.503 774.504 451.495 774.523 451.486L783.729 447.586C784.244 447.387 784.5 446.808 784.301 446.293 784.102 445.777 783.522 445.521 783.007 445.721 782.988 445.728 782.969 445.736 782.95 445.745Z"/><path d="M789.2 445.188C789.334 445.188 789.467 445.161 789.59 445.108L790.427 444.753C790.942 444.554 791.198 443.975 790.999 443.46 790.799 442.944 790.22 442.688 789.705 442.888 789.686 442.895 789.667 442.903 789.648 442.912L788.811 443.266C788.302 443.48 788.062 444.066 788.276 444.575 788.432 444.947 788.797 445.189 789.2 445.188Z"/><path d="M795.894 442.354C796.028 442.354 796.16 442.327 796.283 442.275L797.12 441.921C797.627 441.702 797.861 441.114 797.642 440.607 797.426 440.105 796.846 439.87 796.341 440.079L795.504 440.433C794.995 440.648 794.757 441.235 794.973 441.744 795.129 442.114 795.492 442.354 795.894 442.354Z"/></g></svg>