<svg width="96" height="96" xmlns="http://www.w3.org/2000/svg" xmlns:xlink="http://www.w3.org/1999/xlink" xml:space="preserve" overflow="hidden"><g transform="translate(-220 -589)"><path d="M281.071 647.824C282.131 645.664 284.631 640.824 286.921 638.324 288.779 636.23 290.249 633.822 291.261 631.212 292.322 628.445 292.909 625.519 293 622.557L293 621.7C293 607.893 281.807 596.7 268 596.7 254.193 596.7 243 607.893 243 621.7L243 622.56C243.091 625.521 243.679 628.447 244.74 631.213 245.752 633.823 247.222 636.231 249.08 638.325 251.37 640.815 253.87 645.667 254.93 647.825 255.253 648.475 255.915 648.886 256.641 648.886L279.36 648.886C280.086 648.886 280.749 648.474 281.071 647.824ZM279.3 646.885 256.7 646.885C255.41 644.261 252.925 639.545 250.579 636.994 248.879 635.081 247.535 632.88 246.61 630.494 245.632 627.946 245.087 625.253 245 622.525L245 621.734C244.991 609.031 255.28 598.726 267.983 598.717 280.686 598.708 290.991 608.997 291 621.7L291 622.529C290.914 625.253 290.371 627.944 289.395 630.489 288.475 632.869 287.137 635.065 285.445 636.974 283.066 639.57 280.583 644.281 279.3 646.885Z"/><path d="M279.158 654.941 257.158 654.941C256.606 654.941 256.158 655.389 256.158 655.941 256.158 656.493 256.606 656.941 257.158 656.941L279.158 656.941C279.71 656.941 280.158 656.493 280.158 655.941 280.158 655.389 279.71 654.941 279.158 654.941Z"/><path d="M280.158 664.07C280.158 663.518 279.71 663.07 279.158 663.07L257.158 663.07C256.606 663.07 256.158 663.518 256.158 664.07 256.158 664.622 256.606 665.07 257.158 665.07L279.158 665.07C279.71 665.07 280.158 664.622 280.158 664.07Z"/><path d="M273.8 672.08C273.844 671.529 273.434 671.047 272.883 671.003 272.855 671.001 272.828 671 272.8 671L263.246 671C262.694 670.998 262.245 671.444 262.243 671.997 262.243 672.025 262.244 672.053 262.246 672.081 262.498 675.271 265.288 677.653 268.478 677.401 271.318 677.176 273.574 674.921 273.798 672.081ZM268.03 675.417C266.471 675.404 265.076 674.448 264.5 673L271.561 673C270.987 674.45 269.59 675.406 268.031 675.417Z"/></g></svg>