<svg width="96" height="96" xmlns="http://www.w3.org/2000/svg" xmlns:xlink="http://www.w3.org/1999/xlink" xml:space="preserve" overflow="hidden"><g transform="translate(-101 -46)"><path d="M151.1 74.6C152 73.8 152.3 72.6 151.9 71.5 151.5 70.4 150.5 69.7 149.3 69.7L140.1 69.7C138.9 69.7 137.9 68.9 137.5 67.8L134.6 58.9C134.2 57.8 133.2 57 132 57 130.8 57 129.8 57.8 129.4 58.9L126.5 67.8C126.1 68.9 125.1 69.7 123.9 69.7L114.7 69.7C113.6 69.7 112.5 70.4 112.1 71.5 111.7 72.6 112 73.8 112.9 74.6L116.1 77.5 120.2 81.1C120.6 81.5 120.9 81.9 121 82.4 121.1 82.9 121.1 83.5 121 84L118.2 93.4C117.8 94.5 118.2 95.7 119.2 96.4 120.1 97.1 121.4 97.1 122.4 96.5L130.4 90.9C131.3 90.2 132.6 90.2 133.5 90.9L141.5 96.5C142.5 97.2 143.7 97.1 144.7 96.4 145.6 95.7 146 94.5 145.7 93.4L143 84C142.7 83 143 81.8 143.8 81.1L151.1 74.6Z"/><path d="M185.2 89.1C185.9 88.5 186.1 87.5 185.8 86.7 185.5 85.8 184.7 85.3 183.8 85.2L176.5 85.2C175.6 85.2 174.7 84.6 174.4 83.7L172.1 76.5C171.8 75.6 171 75 170 75 169.1 75 168.2 75.6 167.9 76.5L165.6 83.7C165.3 84.6 164.5 85.2 163.5 85.2L156.2 85.2C155.3 85.2 154.5 85.8 154.2 86.7 153.9 87.6 154.1 88.5 154.8 89.1L157.4 91.4 160.7 94.3C161 94.6 161.2 95 161.4 95.4 161.5 95.8 161.5 96.2 161.4 96.7L159 104.1C158.7 105 159 106 159.8 106.5 160.6 107.1 161.6 107.1 162.3 106.5L168.7 102C169.4 101.5 170.4 101.5 171.2 102L177.6 106.5C178.4 107.1 179.4 107.1 180.2 106.5 181 105.9 181.3 104.9 181 104L178.8 96.5C178.6 95.7 178.8 94.8 179.5 94.2L185.2 89.1Z"/><path d="M157.4 117.6C157.9 117.1 158.1 116.4 157.9 115.8 157.7 115.2 157 114.7 156.4 114.7L150.9 114.7C150.2 114.7 149.6 114.2 149.4 113.6L147.6 108.2C147.3 107.5 146.7 107 146 107 145.3 107 144.7 107.5 144.4 108.1L142.6 113.5C142.4 114.2 141.8 114.6 141.1 114.6L135.6 114.6C134.9 114.6 134.3 115 134.1 115.7 133.9 116.3 134.1 117.1 134.6 117.5L136.5 119.2 138.9 121.4C139.1 121.6 139.3 121.9 139.4 122.2 139.5 122.5 139.5 122.8 139.4 123.1L137.7 128.8C137.5 129.5 137.7 130.2 138.3 130.6 138.9 131 139.6 131 140.2 130.6L145 127.2C145.6 126.8 146.3 126.8 146.9 127.2L151.7 130.6C152.3 131 153 131 153.6 130.6 154.2 130.2 154.4 129.4 154.2 128.8L152.5 123.1C152.3 122.5 152.5 121.8 153 121.4L157.4 117.6Z"/></g></svg>