<svg width="96" height="96" xmlns="http://www.w3.org/2000/svg" xmlns:xlink="http://www.w3.org/1999/xlink" xml:space="preserve" overflow="hidden"><g transform="translate(-743 -292)"><path d="M798.394 353C798.493 353.663 798.493 354.337 798.394 355L811.533 355C811.434 354.337 811.434 353.663 811.533 353Z"/><path d="M747 355 755.564 355C755.465 354.337 755.465 353.663 755.564 353L749 353 749 308 833 308 833 353 826.378 353C826.478 353.663 826.478 354.337 826.378 355L835 355 835 306 747 306Z"/><path d="M770.409 353C770.508 353.663 770.508 354.337 770.409 355L783.549 355C783.502 354.672 783.478 354.342 783.476 354.011 783.478 353.673 783.504 353.335 783.552 353Z"/><path d="M755.092 364.005 754.992 364.005C752.785 364.01 750.997 365.798 750.992 368.005L752.992 374.005 772.983 374.005 774.983 368.005C774.977 365.798 773.19 364.011 770.983 364.005L770.883 364.005C770.428 362.227 768.818 360.988 766.983 361.005L758.983 361.005C757.161 361.023 755.573 362.248 755.092 364.005ZM757.011 364.57C757.244 363.663 758.054 363.023 758.99 363.007L766.99 363.007C767.897 362.988 768.701 363.589 768.941 364.464L769.304 366.005 770.988 366.005C771.987 366.006 772.831 366.744 772.967 367.733L771.541 372 754.435 372 753.013 367.733C753.149 366.744 753.994 366.006 754.992 366.005L756.592 366.005Z"/><path d="M783.077 364.005 782.977 364.005C780.77 364.01 778.982 365.798 778.977 368.005L780.977 374.005 800.967 374.005 802.967 368.005C802.961 365.798 801.174 364.01 798.967 364.005 798.439 362.234 796.815 361.016 794.967 361.005L786.967 361.005C785.146 361.024 783.558 362.248 783.077 364.005ZM785 364.57C785.232 363.663 786.043 363.023 786.979 363.007L794.979 363.007C795.935 363.026 796.77 363.656 797.05 364.57L797.472 366.005 798.972 366.005C799.971 366.006 800.816 366.743 800.952 367.733L799.526 372 782.42 372 781 367.733C781.136 366.743 781.981 366.006 782.98 366.005L784.58 366.005Z"/><path d="M811.062 364.005 810.962 364.005C808.755 364.01 806.968 365.798 806.962 368.005L808.962 374.005 828.952 374.005 830.952 368.005C830.947 365.798 829.159 364.01 826.952 364.005 826.424 362.234 824.8 361.016 822.952 361.005L814.952 361.005C813.131 361.023 811.543 362.248 811.062 364.005ZM812.98 364.57C813.213 363.663 814.023 363.023 814.96 363.007L822.96 363.007C823.919 363.022 824.758 363.653 825.039 364.57L825.462 366.005 826.962 366.005C827.961 366.006 828.806 366.743 828.942 367.733L827.51 372 810.4 372 808.978 367.733C809.114 366.743 809.959 366.006 810.958 366.005L812.558 366.005Z"/><path d="M762.988 359.508C766.026 359.508 768.488 357.046 768.488 354.008 768.488 350.97 766.026 348.508 762.988 348.508 759.95 348.508 757.488 350.97 757.488 354.008 757.488 357.046 759.95 359.508 762.988 359.508ZM762.988 350.514C764.921 350.514 766.488 352.081 766.488 354.014 766.488 355.947 764.921 357.514 762.988 357.514 761.055 357.514 759.488 355.947 759.488 354.014 759.488 352.081 761.055 350.514 762.988 350.514Z"/><path d="M790.973 359.508C794.011 359.508 796.473 357.046 796.473 354.008 796.473 350.97 794.011 348.508 790.973 348.508 787.935 348.508 785.473 350.97 785.473 354.008 785.473 357.046 787.935 359.508 790.973 359.508ZM790.973 350.514C792.906 350.514 794.473 352.081 794.473 354.014 794.473 355.947 792.906 357.514 790.973 357.514 789.04 357.514 787.473 355.947 787.473 354.014 787.473 352.081 789.04 350.514 790.973 350.514Z"/><path d="M818.958 359.508C821.996 359.508 824.458 357.046 824.458 354.008 824.458 350.97 821.996 348.508 818.958 348.508 815.92 348.508 813.458 350.97 813.458 354.008 813.458 357.046 815.92 359.508 818.958 359.508ZM818.958 350.514C820.891 350.514 822.458 352.081 822.458 354.014 822.458 355.947 820.891 357.514 818.958 357.514 817.025 357.514 815.458 355.947 815.458 354.014 815.458 352.081 817.025 350.514 818.958 350.514Z"/></g></svg>