<svg width="96" height="96" xmlns="http://www.w3.org/2000/svg" xmlns:xlink="http://www.w3.org/1999/xlink" xml:space="preserve" overflow="hidden"><g transform="translate(-729 -39)"><path d="M753 82C753 78.6863 750.314 76 747 76 743.686 76 741 78.6863 741 82 741 85.3137 743.686 88 747 88 750.312 87.9961 752.996 85.3121 753 82ZM747 86C744.791 86 743 84.2091 743 82 743 79.7909 744.791 78 747 78 749.209 78 751 79.7909 751 82 751 84.2091 749.209 86 747 86Z"/><path d="M737 100 769 100 769 101C769.003 103.76 771.24 105.997 774 106L817 106 817 111 819 111 819 83C818.997 80.2399 816.76 78.0033 814 78L764 78C758.48 78.0061 754.006 82.4797 754 88L737 88 737 65C737 64.4477 736.552 64 736 64 735.448 64 735 64.4477 735 65L735 111 737 111ZM771 100 771 80 814 80C815.657 80 817 81.3431 817 83L817 104 774 104C772.343 104 771 102.657 771 101ZM764 80 769 80 769 88 756 88C756.005 83.5838 759.584 80.005 764 80ZM737 90 769 90 769 98 737 98Z"/></g></svg>