<svg width="96" height="96" xmlns="http://www.w3.org/2000/svg" xmlns:xlink="http://www.w3.org/1999/xlink" xml:space="preserve" overflow="hidden"><g transform="translate(-628 -433)"><path d="M648.969 458.7C650.806 458.7 652.309 457.948 652.309 457.029L652.309 454.529C651.387 454.529 650.639 453.781 650.639 452.859 650.639 451.937 651.387 451.189 652.309 451.189L652.309 449.519 648.969 449.519C647.127 449.525 645.634 451.017 645.628 452.859L645.628 457.034C645.628 457.948 647.132 458.7 648.969 458.7Z"/><path d="M660.91 468.052C659.792 464.599 657.141 461.856 653.729 460.62 652.343 461.608 650.669 462.107 648.969 462.04 647.269 462.107 645.594 461.608 644.209 460.62 640.78 461.831 638.12 464.584 637.027 468.052 635.107 469.138 633.938 470.558 633.938 472.061 633.938 475.735 640.702 478.741 648.969 478.741 657.236 478.741 664 475.735 664 472.061 664 470.558 662.831 469.138 660.91 468.052Z"/><path d="M648.969 482.082C644.878 482.132 640.818 481.366 637.027 479.827 635.948 479.333 634.915 478.747 633.938 478.073L633.938 516.319C633.938 519.994 640.7 523 648.969 523 657.238 523 664 519.994 664 516.319L664 478.073C663.023 478.747 661.989 479.334 660.91 479.827 657.119 481.366 653.06 482.132 648.969 482.082Z"/><path d="M718 472.521 718 468.521 695 468.521 695 472.521 700 472.521 700 483.521 674 483.521 674 487.521 681 487.521 681 498.521 674 498.521 674 502.521 690 502.521 690 513.521 674 513.521 674 517.521 718 517.521 718 513.521 694 513.521 694 502.521 718 502.521 718 498.521 711 498.521 711 487.521 718 487.521 718 483.521 704 483.521 704 472.521ZM707 498.521 685 498.521 685 487.521 707 487.521Z"/><path d="M683.23 453.287C683.23 452.459 682.558 451.787 681.73 451.787L665.373 451.787C664.545 451.787 663.873 452.459 663.873 453.287 663.873 454.115 664.545 454.787 665.373 454.787L681.73 454.787C682.558 454.787 683.23 454.115 683.23 453.287Z"/><path d="M688.091 454.787 689 454.787C689.828 454.787 690.5 454.115 690.5 453.287 690.5 452.459 689.828 451.787 689 451.787L688.091 451.787C687.263 451.787 686.591 452.459 686.591 453.287 686.591 454.115 687.263 454.787 688.091 454.787Z"/><path d="M675.557 463.323C675.896 462.567 675.558 461.68 674.802 461.341 674.801 461.341 674.8 461.34 674.8 461.34L659.877 454.64C659.121 454.301 658.233 454.638 657.894 455.394 657.555 456.15 657.892 457.038 658.648 457.377L673.571 464.077C674.327 464.416 675.214 464.078 675.554 463.323 675.554 463.323 675.554 463.322 675.554 463.322Z"/><path d="M680.606 463.945C679.847 463.613 678.963 463.96 678.631 464.719 678.304 465.467 678.636 466.34 679.378 466.682L680.207 467.054C680.963 467.393 681.851 467.056 682.19 466.3 682.529 465.544 682.192 464.656 681.436 464.317Z"/><path d="M659.135 452.061C659.336 452.061 659.534 452.02 659.719 451.942L668.925 448.047C669.688 447.724 670.045 446.844 669.721 446.081 669.398 445.318 668.518 444.961 667.755 445.284L658.549 449.179C657.786 449.501 657.428 450.381 657.75 451.144 657.985 451.701 658.531 452.062 659.135 452.061Z"/><path d="M674.2 445.688C674.401 445.688 674.599 445.647 674.784 445.568L675.621 445.214C676.384 444.891 676.741 444.01 676.417 443.247 676.094 442.485 675.214 442.128 674.451 442.451L673.614 442.806C672.851 443.128 672.493 444.008 672.815 444.771 673.05 445.328 673.596 445.689 674.2 445.688Z"/><path d="M680.9 442.854C681.1 442.854 681.299 442.813 681.483 442.735L682.319 442.381C683.091 442.08 683.472 441.21 683.171 440.438 682.87 439.667 682.001 439.285 681.229 439.586 681.203 439.596 681.177 439.607 681.151 439.619L680.315 439.973C679.552 440.296 679.196 441.177 679.52 441.94 679.755 442.494 680.298 442.854 680.9 442.854Z"/></g></svg>