<svg width="96" height="96" xmlns="http://www.w3.org/2000/svg" xmlns:xlink="http://www.w3.org/1999/xlink" xml:space="preserve" overflow="hidden"><g transform="translate(-227 -49)"><path d="M258 62C258.329 62.0249 258.61 62.2462 258.712 62.56L261.6 71.42 261.611 71.452 261.622 71.484C262.295 73.3874 264.082 74.6706 266.1 74.7L275.3 74.7C275.622 74.6805 275.917 74.8787 276.021 75.184 276.145 75.5133 276.044 75.8851 275.77 76.106L268.483 82.6C267.104 83.8467 266.56 85.7729 267.083 87.557L269.775 96.931C269.856 97.2466 269.754 97.581 269.511 97.798 269.357 97.9073 269.176 97.9714 268.988 97.983 268.866 97.9818 268.748 97.9411 268.652 97.867L260.687 92.291C259.068 91.0763 256.842 91.0763 255.223 92.291L247.331 97.816C247.177 97.8983 247.005 97.9419 246.831 97.943 246.689 97.9475 246.548 97.9065 246.431 97.826L246.391 97.795 246.35 97.767C246.11 97.6333 245.999 97.349 246.083 97.088L246.103 97.033 246.12 96.976 248.92 87.576 248.946 87.488 248.964 87.397C249.116 86.6096 249.116 85.8004 248.964 85.013 248.758 84.1212 248.289 83.3121 247.617 82.691L247.571 82.645 247.52 82.6 243.443 79.021 240.229 76.108C239.955 75.8873 239.855 75.5155 239.98 75.187 240.104 74.8982 240.386 74.7089 240.7 74.703L249.9 74.703C251.919 74.6744 253.707 73.3911 254.38 71.487L254.391 71.455 254.402 71.423 257.288 62.563C257.389 62.248 257.67 62.0254 258 62M258 60C256.819 60.0218 255.779 60.7818 255.4 61.9L252.5 70.8C252.121 71.9182 251.081 72.6782 249.9 72.7L240.7 72.7C239.163 72.7021 237.92 73.9493 237.922 75.4858 237.923 76.2997 238.28 77.0723 238.9 77.6L242.1 80.5 246.2 84.1C246.592 84.4426 246.871 84.8958 247 85.4 247.1 85.9286 247.1 86.4714 247 87L244.2 96.4C243.804 97.511 244.216 98.7491 245.2 99.4 245.668 99.7555 246.241 99.9449 246.828 99.938 247.382 99.936 247.925 99.7847 248.4 99.5L256.4 93.9C257.315 93.2001 258.585 93.2001 259.5 93.9L267.5 99.5C267.933 99.8096 268.451 99.9767 268.983 99.978 269.601 99.9665 270.201 99.7647 270.7 99.4 271.603 98.6901 271.997 97.51 271.7 96.4L269 87C268.696 85.9598 269.005 84.837 269.8 84.1L277.1 77.6C277.986 76.8341 278.305 75.5991 277.9 74.5 277.511 73.4033 276.464 72.6785 275.3 72.7L266.1 72.7C264.919 72.6783 263.879 71.9182 263.5 70.8L260.6 61.9C260.221 60.7818 259.181 60.0217 258 60Z"/><path d="M296 80C296.134 80 296.173 80.045 296.195 80.109L298.5 87.332C299.089 89.0406 300.693 90.1907 302.5 90.2L309.656 90.2C309.745 90.217 309.877 90.256 309.903 90.333L309.914 90.368 309.927 90.402C309.946 90.4773 309.922 90.5567 309.866 90.61L304.2 95.682C302.971 96.7436 302.453 98.4108 302.862 99.982L302.872 100.021 302.883 100.06 305.083 107.56 305.093 107.595 305.105 107.63C305.136 107.731 305.095 107.841 305.005 107.897 304.977 107.922 304.942 107.939 304.905 107.947 304.868 107.94 304.833 107.922 304.805 107.897L304.78 107.879 304.755 107.861 298.355 103.361 298.311 103.33 298.26 103.3C297.557 102.858 296.743 102.623 295.912 102.621 295.067 102.614 294.241 102.873 293.55 103.36L287.15 107.86 287.071 107.915 287.054 107.93C287.035 107.921 287.017 107.911 287 107.9L286.963 107.882 286.891 107.837C286.882 107.797 286.886 107.755 286.902 107.717L289.302 100.317 289.338 100.206 289.361 100.092C289.521 99.3743 289.514 98.6295 289.34 97.915L289.286 97.701 289.186 97.501C288.92 96.9059 288.557 96.3591 288.112 95.883L288.066 95.837 288.02 95.8 284.72 92.9 282.1 90.581C282.078 90.563 282.032 90.523 282.1 90.333 282.133 90.233 282.191 90.2 282.2 90.2L289.5 90.2C291.323 90.2177 292.945 89.0455 293.5 87.309L295.8 80.132C295.844 80.0607 295.917 80.0123 296 80M296 78C295.055 78.0107 294.217 78.6095 293.9 79.5L291.6 86.7C291.308 87.6088 290.454 88.2184 289.5 88.2L282.2 88.2C280.96 88.2669 280.009 89.3261 280.076 90.5658 280.108 91.1521 280.368 91.7027 280.8 92.1L283.4 94.4 286.7 97.3C286.99 97.6273 287.226 97.9986 287.4 98.4 287.5 98.8275 287.5 99.2725 287.4 99.7L285 107.1C284.68 107.989 285.01 108.981 285.8 109.5 286.169 109.786 286.621 109.944 287.088 109.95 287.533 109.951 287.963 109.791 288.3 109.5L294.7 105C295.055 104.752 295.479 104.621 295.912 104.625 296.368 104.627 296.814 104.757 297.2 105L303.6 109.5C304.362 110.101 305.438 110.101 306.2 109.5 306.981 108.929 307.304 107.919 307 107L304.8 99.5C304.574 98.6626 304.846 97.7696 305.5 97.2L311.2 92.1C311.875 91.4999 312.113 90.5472 311.8 89.7 311.493 88.845 310.707 88.255 309.8 88.2L302.5 88.2C301.555 88.1893 300.717 87.5905 300.4 86.7L298.1 79.5C297.808 78.5912 296.954 77.9816 296 78Z"/><path d="M271.974 112.7C271.976 112.695 271.981 112.692 271.987 112.694 271.99 112.695 271.992 112.697 271.993 112.7L273.503 117.229C273.996 118.69 275.358 119.681 276.9 119.7L281.355 119.7C281.361 119.699 281.365 119.703 281.366 119.709 281.366 119.712 281.365 119.716 281.362 119.718L277.715 122.867C276.592 123.795 276.147 125.313 276.591 126.7L277.969 131.322C277.97 131.327 277.967 131.333 277.962 131.334 277.959 131.335 277.956 131.335 277.954 131.333L274.054 128.572 274.031 128.556 274.008 128.54C272.766 127.692 271.131 127.692 269.889 128.54L269.865 128.556 269.842 128.572 265.942 131.333C265.937 131.336 265.931 131.335 265.928 131.33 265.927 131.327 265.926 131.325 265.927 131.322L267.309 126.7C267.533 126.008 267.529 125.262 267.297 124.572 267.092 123.978 266.756 123.437 266.314 122.99L262.614 119.621C262.61 119.617 262.61 119.611 262.614 119.607 262.616 119.605 262.618 119.604 262.62 119.604L267.1 119.604C268.666 119.623 270.056 118.604 270.508 117.104ZM272 110C271.304 110.041 270.688 110.465 270.4 111.1L268.6 116.5C268.415 117.17 267.794 117.625 267.1 117.6L261.6 117.6C260.906 117.575 260.285 118.03 260.1 118.7 259.902 119.346 260.097 120.049 260.6 120.5L262.5 122.2 264.9 124.4C265.123 124.627 265.294 124.9 265.4 125.2 265.5 125.492 265.5 125.808 265.4 126.1L263.7 131.8C263.472 132.467 263.718 133.203 264.3 133.6 264.87 134 265.63 134 266.2 133.6L271 130.2C271.57 129.8 272.33 129.8 272.9 130.2L277.7 133.6C278.27 134 279.03 134 279.6 133.6 280.169 133.193 280.411 132.467 280.2 131.8L278.5 126.1C278.302 125.484 278.5 124.81 279 124.4L283.4 120.6C283.892 120.142 284.085 119.446 283.9 118.8 283.655 118.174 283.071 117.745 282.4 117.7L276.9 117.7C276.219 117.684 275.62 117.245 275.4 116.6L273.6 111.2C273.355 110.516 272.725 110.044 272 110Z"/></g></svg>